<?xml version="1.0" encoding="utf-8"?>
<!-- Generator: Adobe Illustrator 23.0.2, SVG Export Plug-In . SVG Version: 6.00 Build 0)  -->
<svg version="1.1" id="Layer_1" xmlns="http://www.w3.org/2000/svg" xmlns:xlink="http://www.w3.org/1999/xlink" x="0px" y="0px"
	 viewBox="0 0 46.5 48.5" style="enable-background:new 0 0 46.5 48.5;" xml:space="preserve">
<style type="text/css">
	.st0{fill-rule:evenodd;clip-rule:evenodd;fill:#F58220;}
	.st1{clip-path:url(#SVGID_2_);fill-rule:evenodd;clip-rule:evenodd;fill:#FFFFFF;}
</style>
<g>
	<g>
		<g>
			<path class="st0" d="M23.3,1.9c12.9,0,23.3,10.4,23.3,23.3c0,12.9-10.4,23.3-23.3,23.3C10.4,48.5,0,38.1,0,25.2
				C0,12.4,10.4,1.9,23.3,1.9L23.3,1.9z"/>
			<g>
				<defs>
					<path id="SVGID_1_" d="M23.3,1.9c12.9,0,23.3,10.4,23.3,23.3c0,12.9-10.4,23.3-23.3,23.3C10.4,48.5,0,38.1,0,25.2
						C0,12.4,10.4,1.9,23.3,1.9L23.3,1.9z"/>
				</defs>
				<clipPath id="SVGID_2_">
					<use xlink:href="#SVGID_1_"  style="overflow:visible;"/>
				</clipPath>
				<path class="st1" d="M8.8,29.8c0,6.3,3.9,10.7,10.6,13.7V0L8.8,0.1V29.8L8.8,29.8z M23.1,26c0-3.2,0-6.5,0-9.7
					c18.3-3.1,24.9,26.3,0.1,27.2c0-3.1,0-6.3,0-9.4C31.3,34.6,31.8,25,23.1,26L23.1,26z"/>
			</g>
		</g>
	</g>
</g>
</svg>
